# xmcd
#
# Track frame offsets: 
#        150
#        21561
#        42844
#        62173
#        79979
#        93984
#        111149
#        123935
#        143349
#        164570
#        184247
#        204870
#        225485
#        250085
#        267428
#        285800
#        308645
#
# Disc length: 4350 seconds
#
# Revision: 0
# Processed by: cddbd v1.5.2PL0 Copyright (c) Steve Scherf et al.
# Submitted via: ExactAudioCopyFreeDBPlugin 1.0
#
DISCID=e010fc11
DTITLE=群唱 - 国语浓情对对唱B
DYEAR=2012
DGENRE=Acid Jazz
TTITLE0=片片枫叶情（张智霖&许秋怡）
TTITLE1=现代爱情故事（张智霖&许秋怡）
TTITLE2=相思风雨中（张学友&汤宝如）
TTITLE3=爱得太迟（古巨基&周慧敏）
TTITLE4=好心分手（王力宏&卢巧音）
TTITLE5=相爱很难（张学友&梅兰芳）
TTITLE6=世间始终你好（罗文&甄妮）
TTITLE7=明天你是否依然爱我（谭咏麟&关淑怡）
TTITLE8=当爱已成往事（李宗盛&林忆莲）
TTITLE9=好人好梦（邰正宵&孙悦）
TTITLE10=别说爱情苦（刘德华&梅艳芳）
TTITLE11=让我取暖（王力宏&彭羚）
TTITLE12=知心爱人（付笛生&任静）
TTITLE13=无言的结局（罗时丰&林淑容）
TTITLE14=花样年华（梁朝伟&张曼玉）
TTITLE15=最爱的人伤我最深（张雨生&张惠妹）
TTITLE16=我悄悄蒙上你的眼睛（高明骏&陈艾湄）
EXTD=
EXTT0=
EXTT1=
EXTT2=
EXTT3=
EXTT4=
EXTT5=
EXTT6=
EXTT7=
EXTT8=
EXTT9=
EXTT10=
EXTT11=
EXTT12=
EXTT13=
EXTT14=
EXTT15=
EXTT16=
PLAYORDER=
